<?xml version="1.0" encoding="UTF-8"?>
<svg width="100" height="100" xmlns="http://www.w3.org/2000/svg" viewBox="0 0 100 100">
  <path d="M20.087 14.904C23.402 17.659 24.659 17.477 30.414 16.904L80.992 12.935C81.949 12.935 80.991 11.979 80.51 11.798L71.766 5.67C70.331 4.774 68.321 3.694 64.54 4.25L15.866 9.194C14.432 9.375 13.953 10.151 14.674 10.926L20.077 14.894L20.087 14.904Z" fill="black"/>
  <path d="M24.463 23.932V85.569C24.463 88.845 26.03 90.175 29.64 89.994L83.889 85.206C87.499 85.024 88.166 82.651 88.166 79.922V19.145C88.166 16.416 87.115 14.971 84.851 15.152L27.823 19.745C25.319 20.088 24.473 21.187 24.473 23.923L24.463 23.932ZM77.119 25.89C77.785 25.89 78.08 26.345 78.08 27.049V74.397C78.08 75.471 77.785 76.014 76.74 76.195L74.118 76.731V29.202C74.118 28.498 73.809 28.005 72.998 28.186L34.2 33.312C33.55 33.403 33.235 33.797 33.235 34.482V77.827L29.625 78.36C28.96 78.36 28.673 77.947 28.673 77.243V26.413C28.673 25.709 28.96 25.153 29.789 25.072L77.108 20.881L77.119 25.89ZM70.183 33.858V76.722L54.069 78.903C52.026 79.095 51.354 78.379 51.169 76.903L48.299 58.698C48.133 57.593 47.622 57.055 46.607 57.145L38.138 58.28V35.128L70.145 30.564C69.994 31.35 70.174 33.029 70.174 33.848L70.183 33.858ZM44.398 39.722L41.742 40.007C41.255 40.007 41.099 40.332 41.099 40.691V52.762C41.099 53.129 41.255 53.444 41.742 53.444L44.398 53.2C44.885 53.2 45.04 52.875 45.04 52.516V40.373C45.04 40.015 44.895 39.722 44.398 39.722Z" fill="black"/>
</svg>