<?xml version="1.0" encoding="UTF-8"?>
<svg width="2406" height="2406" xmlns="http://www.w3.org/2000/svg" xmlns:xlink="http://www.w3.org/1999/xlink" version="1.1" viewBox="0 0 2406 2406">
  <g>
    <path d="M1 1200.5C1 536.9 537.5 1 1201.5 1s1203.5 535.9 1203.5 1199.5S1865.6 2405 1201.5 2405 1 1864.2 1 1200.5z" style="fill:#fff"/>
    <path d="M1250.5 303.3c-152.5 0-294.6 44.7-414 121.8-3.3 2-6.2 4.3-8.5 6.9-9.3 9.8-14.1 22.8-14.1 35.7 0 28.4 22.9 51.3 51.3 51.3 15.2 0 29.6-6.7 39.3-18.5 100-81.3 226.6-125.9 353.5-125.9 315.3 0 571.8 256.5 571.8 571.8 0 315.3-256.5 571.8-571.8 571.8-125.9 0-247.2-41-347.1-116.7-11.3-9.8-25.9-15.4-40.4-15.4-9.9 0-19.3 2.3-27.7 6.3-8.9 4.3-16.3 10.7-21.3 18.8-4.9 8-7.4 16.9-7.4 26 0 16.5 7.9 32 21.2 41.7 124.8 94.3 276.2 144.6 432.5 144.6 405.1 0 733.1-328 733.1-733.1 0-403.5-326.2-730.9-729.3-733.1h-0.1z" style="fill:#00a67e"/>
    <path d="M307.3 1226.8c0-215.8 128.5-412.6 326.6-499-11.1-36.8-2.4-76.5 25.6-104.2 36-36 94.5-36 130.5 0L1029.5 863c16.9 16.9 24.9 39.7 24.3 61.9h372.2c1.4-23.3 11.1-45.3 28.8-63l239.2-239.2c36-36 94.5-36 130.5 0 16.3 16.3 25.4 37.5 25.9 60.3 206.1 83.7 340.6 284 340.7 504.1 0 176.4-85.6 341-228.9 442.5-17.8 12.7-39.2 19.2-60.8 19.2-30.4-0.1-58.2-12.5-78.1-32.3l-80.6-80.6c-16.9-16.9-26.4-39.5-26.6-63.4H980.8c-0.2 23.9-9.7 46.5-26.6 63.4l-80.6 80.6c-19.9 19.8-47.6 32.2-78 32.2-21.7 0.1-43-6.4-60.8-19.1-147-104.9-233.3-275.9-227.6-458.7z" style="fill:#00a67e"/>
  </g>
</svg>