<?xml version="1.0" encoding="UTF-8"?>
<svg width="520" height="520" viewBox="0 0 520 520" fill="none" xmlns="http://www.w3.org/2000/svg">
  <path d="M346.891 260C346.891 308.547 307.437 348 258.891 348C210.344 348 170.891 308.547 170.891 260C170.891 211.453 210.344 172 258.891 172C307.437 172 346.891 211.453 346.891 260Z" fill="#3B82F6"/>
  <path fill-rule="evenodd" clip-rule="evenodd" d="M258.891 520C401.891 520 518.891 403 518.891 260C518.891 117 401.891 0 258.891 0C115.891 0 -1.10901 117 -1.10901 260C-1.10901 403 115.891 520 258.891 520ZM258.891 390C330.891 390 388.891 332 388.891 260C388.891 188 330.891 130 258.891 130C186.891 130 128.891 188 128.891 260C128.891 332 186.891 390 258.891 390Z" fill="#3B82F6"/>
</svg>