<?xml version="1.0" encoding="UTF-8"?>
<svg width="32" height="32" viewBox="0 0 32 32" fill="none" xmlns="http://www.w3.org/2000/svg">
  <path d="M7 5.5C7 4.67157 7.67157 4 8.5 4H15.5C16.3284 4 17 4.67157 17 5.5V12.5C17 13.3284 16.3284 14 15.5 14H8.5C7.67157 14 7 13.3284 7 12.5V5.5Z" fill="#F26207"/>
  <path d="M7 19.5C7 18.6716 7.67157 18 8.5 18H15.5C16.3284 18 17 18.6716 17 19.5V26.5C17 27.3284 16.3284 28 15.5 28H8.5C7.67157 28 7 27.3284 7 26.5V19.5Z" fill="#F26207"/>
  <path d="M22.5 11C21.6716 11 21 10.3284 21 9.5V5.5C21 4.67157 21.6716 4 22.5 4H26.5C27.3284 4 28 4.67157 28 5.5V9.5C28 10.3284 27.3284 11 26.5 11H22.5Z" fill="#F26207"/>
  <path d="M22.5 28C21.6716 28 21 27.3284 21 26.5V19.5C21 18.6716 21.6716 18 22.5 18H26.5C27.3284 18 28 18.6716 28 19.5V26.5C28 27.3284 27.3284 28 26.5 28H22.5Z" fill="#F26207"/>
</svg>